<svg xmlns="http://www.w3.org/2000/svg" viewBox="0 0 56.78 56.78"><defs><style>.cls-1{fill:#0e1929;}</style></defs><g id="Layer_2" data-name="Layer 2"><g id="Layer_1-2" data-name="Layer 1"><path class="cls-1" d="M56.46,3.74,53,.32a1.07,1.07,0,0,0-1.53,0L28.39,23.44,5.27.32a1.07,1.07,0,0,0-1.53,0L.32,3.74a1.07,1.07,0,0,0,0,1.53L23.44,28.39.32,51.51A1.07,1.07,0,0,0,.32,53l3.42,3.42a1.09,1.09,0,0,0,1.53,0L28.39,33.34,51.51,56.46a1.09,1.09,0,0,0,1.53,0L56.46,53a1.09,1.09,0,0,0,0-1.53L33.34,28.39,56.46,5.27A1.09,1.09,0,0,0,56.46,3.74Z"/></g></g></svg>